<?xml version="1.0" encoding="UTF-8"?>
<svg version="1.1" xmlns="http://www.w3.org/2000/svg" width="660" height="340">
<path d="M0 0 C0.88835541 -0.00571014 1.77671082 -0.01142029 2.69198608 -0.01730347 C3.66953857 -0.01842133 4.64709106 -0.01953918 5.65426636 -0.02069092 C7.19623184 -0.02813828 7.19623184 -0.02813828 8.76934814 -0.03573608 C12.18786278 -0.05039786 15.60633084 -0.05717051 19.02487183 -0.06268311 C21.40507 -0.06843642 23.78526816 -0.07419413 26.16546631 -0.07995605 C31.17084977 -0.09048095 36.17621713 -0.09631217 41.18161011 -0.09979248 C47.55857736 -0.10524478 53.93532758 -0.12919607 60.31222725 -0.15776443 C65.23857208 -0.17651385 70.16486627 -0.18160318 75.09124374 -0.18312836 C77.43929084 -0.18613366 79.7873375 -0.19408938 82.13534927 -0.20731354 C108.20521987 -0.34351667 130.92934515 2.73195784 150.76705933 21.14044189 C157.09453162 27.76175965 161.66890226 34.51420065 164.76705933 43.14044189 C165.08545776 43.99380127 165.4038562 44.84716064 165.73190308 45.72637939 C170.98330719 62.61799264 168.90229467 82.64154507 160.82955933 98.20294189 C158.48085052 102.21905465 155.8166253 105.64241034 152.76705933 109.14044189 C152.76705933 109.80044189 152.76705933 110.46044189 152.76705933 111.14044189 C154.21164751 112.28947759 155.70006752 113.38353904 157.20455933 114.45294189 C169.15503067 123.81358022 176.4688241 138.15230608 178.48580933 153.08575439 C180.07880788 170.38748874 177.24450267 186.89299013 166.59127808 201.02716064 C151.24781707 218.75561559 129.20438333 226.07381898 106.45384216 227.96366119 C97.25775983 228.56873052 88.02543122 228.47040534 78.81393433 228.47637939 C76.45506717 228.48282164 74.09620077 228.48955101 71.73733521 228.49655151 C66.83267357 228.50843277 61.92808196 228.51224093 57.02340698 228.51104736 C50.74223174 228.51084255 44.46150071 228.53835156 38.18043137 228.57259178 C33.32656786 228.59480488 28.47281325 228.59888692 23.61890411 228.59782791 C21.30166313 228.60018431 18.98441916 228.60900996 16.6672287 228.62449265 C13.43943991 228.64407581 10.21263721 228.63834854 6.98483276 228.62628174 C6.03415421 228.63752075 5.08347565 228.64875977 4.10398865 228.66033936 C-1.65114074 228.60563461 -4.81388099 227.90708976 -9.23294067 224.14044189 C-12.61051117 219.53738122 -11.64312476 213.23313428 -11.65847778 207.77813721 C-11.67036126 205.77880316 -11.72008143 203.77981175 -11.77005005 201.78106689 C-11.83028828 190.98199444 -11.83028828 190.98199444 -8.83059692 187.28887939 C-5.52134459 184.55190378 -4.05460645 184.01579742 0.12734985 184.00241089 C1.04383804 183.99695755 1.96032623 183.99150421 2.90458679 183.98588562 C4.41770699 183.98432213 4.41770699 183.98432213 5.96139526 183.98272705 C7.02184555 183.97764633 8.08229584 183.97256561 9.17488098 183.96733093 C11.48569658 183.95660709 13.79652269 183.94799486 16.10735321 183.9412117 C19.77435221 183.92943077 23.441233 183.90997528 27.10818481 183.88809204 C37.53756722 183.82648146 47.96694052 183.77260804 58.39645386 183.73907471 C64.77256387 183.71802101 71.14846326 183.68262155 77.52445221 183.63831711 C79.94668328 183.62422936 82.36895168 183.61545114 84.79122162 183.61226273 C107.41880212 184.40624976 107.41880212 184.40624976 127.76705933 176.14044189 C132.27314062 170.31313306 133.24716671 164.34205271 132.76705933 157.14044189 C131.63364479 150.74798392 129.2361325 146.68895765 124.14987183 142.64434814 C114.85740956 136.77943344 104.86144756 135.9917597 94.17526245 136.01446533 C92.59369606 136.01166313 92.59369606 136.01166313 90.98017883 136.00880432 C88.69669336 136.00480922 86.41320391 136.0027263 84.12971497 136.00234222 C79.27450931 135.99891871 74.41943662 135.97755108 69.56427765 135.95711136 C60.52947666 135.91911275 51.49482053 135.88783139 42.45993042 135.88995361 C36.16992406 135.89073992 29.88040861 135.86741597 23.5905304 135.82807159 C21.19517727 135.81760253 18.79976755 135.81609416 16.40440369 135.82372284 C13.05534531 135.83332828 9.70777971 135.81219309 6.3588562 135.78399658 C5.37062363 135.79419327 4.38239105 135.80438995 3.36421204 135.81489563 C-1.12700399 135.74707902 -4.25591093 135.60979439 -7.83242798 132.72521973 C-12.48369548 127.71691748 -11.52414982 122.51338806 -11.58303833 115.92901611 C-11.59955456 114.57695246 -11.62678833 113.22497457 -11.66506958 111.87335205 C-12.02180804 99.20138162 -12.02180804 99.20138162 -8.83450317 95.28106689 C-5.62415485 92.63951903 -4.18420562 92.01656525 -0.14271545 91.99568176 C0.7136853 91.98878326 1.57008606 91.98188477 2.45243835 91.97477722 C3.39423447 91.97216385 4.33603058 91.96955048 5.30636597 91.96685791 C6.29681915 91.9601709 7.28727234 91.95348389 8.30773926 91.94659424 C10.46468424 91.93251889 12.62164434 91.92063281 14.77861214 91.91064644 C18.19640151 91.89425614 21.61408001 91.87101597 25.03181458 91.8457489 C34.75169348 91.7749401 44.47161923 91.71500059 54.19161987 91.66363525 C60.13325344 91.63175482 66.0747623 91.59044883 72.01629448 91.54343987 C74.27798646 91.52746528 76.5397072 91.51512284 78.80143929 91.50653267 C81.97508436 91.49431138 85.14843931 91.47013043 88.32199097 91.44342041 C89.24961746 91.44283127 90.17724396 91.44224213 91.13298035 91.44163513 C100.4361976 91.3384419 108.33166708 89.99096595 115.76705933 84.14044189 C121.30129221 78.3149336 122.18175893 72.95531296 122.00924683 65.14434814 C121.51366714 58.99756144 120.00212629 54.94362895 115.39205933 50.76544189 C107.87054184 44.9469095 99.68502476 44.99427535 90.54244995 45.01446533 C89.01940498 45.01166313 89.01940498 45.01166313 87.46559143 45.00880432 C85.26722975 45.00481011 83.06886394 45.00272638 80.87049866 45.00234222 C76.19563946 44.99891753 71.52091821 44.97754852 66.84610748 44.95711136 C58.14770102 44.91911912 49.44944506 44.8878313 40.75094604 44.88995361 C34.69435057 44.89074004 28.63826478 44.8674112 22.58180237 44.82807159 C20.27576488 44.81760458 17.96966862 44.81609266 15.66362 44.82372284 C12.43907318 44.83333134 9.21607556 44.81218786 5.9916687 44.78399658 C4.56542427 44.79929161 4.56542427 44.79929161 3.11036682 44.81489563 C-1.26197525 44.74635768 -4.30539985 44.55667367 -7.80947876 41.78771973 C-12.51784276 36.64452041 -11.52329579 30.49226425 -11.58303833 23.85357666 C-11.6077272 21.84530628 -11.66433782 19.83751143 -11.72122192 17.82989502 C-11.8201046 6.95829393 -11.8201046 6.95829393 -8.83450317 3.28497314 C-5.56962618 0.59365563 -4.116851 0.01582602 0 0 Z " fill="#3D84A8" transform="translate(457.2329406738281,59.85955810546875)"/>
<path d="M0 0 C0.78153946 -0.00428513 1.56307892 -0.00857025 2.36830139 -0.01298523 C4.0182295 -0.0187179 5.66818288 -0.01923662 7.31811523 -0.01489258 C9.83556456 -0.01173392 12.35183659 -0.03519911 14.86914062 -0.06054688 C16.47525894 -0.0628202 18.0813804 -0.06352321 19.6875 -0.0625 C20.43660141 -0.07170975 21.18570282 -0.08091949 21.95750427 -0.09040833 C26.45284421 -0.05082929 29.38561788 0.44631336 32.91015625 3.30078125 C34.19775391 5.08691406 34.19775391 5.08691406 35.19921875 7.25390625 C35.82231934 8.59678711 35.82231934 8.59678711 36.45800781 9.96679688 C39.38606629 16.68931985 42.26168604 23.43160575 45.09106445 30.19628906 C47.18760995 35.20810872 49.29574672 40.21505524 51.40234375 45.22265625 C52.06970551 46.81019714 52.06970551 46.81019714 52.75054932 48.42980957 C57.92819804 60.73811825 63.17018154 73.018913 68.41015625 85.30078125 C76.20321496 103.57378185 83.97041346 121.85723033 91.66748047 140.17089844 C95.84754212 150.10665821 100.07549114 160.02017634 104.35790253 169.91226196 C105.96575147 173.62965077 107.56739551 177.34971907 109.16923141 181.06970215 C110.47060098 184.08989679 111.77802715 187.10725735 113.09350586 190.12133789 C114.55627353 193.47344518 116.00410176 196.83165968 117.44921875 200.19140625 C118.10556808 201.67903473 118.10556808 201.67903473 118.775177 203.19671631 C121.13530336 208.7275547 123.23875461 214.18754547 122.91015625 220.30078125 C120.90527784 224.38479283 119.18791269 226.76205477 114.91015625 228.30078125 C112.07287891 228.49516949 109.33416139 228.57917191 106.49710083 228.56820679 C105.64037053 228.5727379 104.78364023 228.57726901 103.90094841 228.58193743 C101.02521964 228.5946152 98.14967943 228.59295889 95.27392578 228.59130859 C93.21412919 228.59729172 91.15433484 228.60409676 89.09454346 228.61166382 C83.49537051 228.6293526 77.89625867 228.6340204 72.29706049 228.63529539 C67.62500164 228.63719318 62.95295706 228.6445493 58.2809037 228.65163958 C47.25936465 228.66793194 36.23785829 228.67280774 25.21630859 228.67138672 C13.84188777 228.67018493 2.46765659 228.69129239 -8.90671623 228.72287405 C-18.66817776 228.74901288 -28.42957726 228.75975502 -38.19107354 228.7584759 C-44.02297701 228.75796558 -49.85471199 228.76368752 -55.68658066 228.784832 C-61.17118259 228.80417409 -66.65545459 228.80436634 -72.14006805 228.78979874 C-74.15325272 228.78770457 -76.16645783 228.79244759 -78.17960739 228.80451965 C-80.92773473 228.81993198 -83.67471873 228.81069063 -86.42282104 228.79525757 C-87.21971466 228.80554469 -88.01660827 228.81583182 -88.83765018 228.82643068 C-94.02821189 228.76200268 -96.95439633 227.70406223 -101.08984375 224.30078125 C-103.54351564 220.74573541 -103.25652535 218.03670965 -102.67773438 213.90478516 C-101.53621639 208.84854312 -99.43832154 204.20985627 -97.33984375 199.48828125 C-96.90929687 198.46541016 -96.47875 197.44253906 -96.03515625 196.38867188 C-91.9843959 187.1289248 -91.9843959 187.1289248 -87.08984375 184.30078125 C-83.91393985 183.24214662 -81.63759482 183.16303739 -78.30024719 183.14256287 C-76.48922516 183.12787964 -76.48922516 183.12787964 -74.64161682 183.11289978 C-73.30184976 183.10699565 -71.96208229 183.1011852 -70.62231445 183.09545898 C-69.21301995 183.0858799 -67.80372831 183.0758698 -66.3944397 183.06546021 C-62.5662454 183.03840833 -58.73803877 183.0174003 -54.90980172 182.99745822 C-50.90991226 182.97560042 -46.91006082 182.94821072 -42.91020203 182.92140198 C-35.33484733 182.87147231 -27.75947153 182.82653449 -20.18407553 182.78337961 C-11.56020301 182.73400959 -2.93636865 182.67909059 5.68746698 182.62370002 C23.42832798 182.50987576 41.16922499 182.40303768 58.91015625 182.30078125 C57.2833588 178.36705445 55.65633177 174.4334227 54.02910805 170.49987221 C53.4776179 169.16664778 52.92618639 167.8333991 52.3748188 166.50012398 C48.05395416 156.05190393 43.71004624 145.61358025 39.33782959 135.18673706 C38.23355667 132.55270008 37.13058006 129.91812299 36.02783203 127.28344727 C32.3756904 118.55965397 28.71739258 109.8385096 25.04598999 101.12280273 C23.36244035 97.12513282 21.6814839 93.12637511 20.00079346 89.12750244 C19.19314876 87.20796251 18.38419751 85.28897177 17.57391357 83.37054443 C16.45104922 80.71189442 15.33248426 78.05147431 14.21484375 75.390625 C13.87827759 74.59693008 13.54171143 73.80323517 13.19494629 72.98548889 C10.91015625 67.5285059 10.91015625 67.5285059 10.91015625 65.30078125 C10.25015625 65.30078125 9.59015625 65.30078125 8.91015625 65.30078125 C8.51957031 66.53054687 8.12898438 67.7603125 7.7265625 69.02734375 C5.72110112 75.0308948 3.28979111 80.83906657 0.84765625 86.67578125 C0.33350571 87.91103522 -0.18040207 89.14639026 -0.6940918 90.38183594 C-2.48734116 94.690385 -4.28828826 98.99569998 -6.08984375 103.30078125 C-6.4463501 104.15297241 -6.80285645 105.00516357 -7.17016602 105.88317871 C-10.67124527 114.25191683 -14.17277506 122.62046525 -17.68188477 130.98583984 C-18.23252846 132.30006424 -18.23252846 132.30006424 -18.79429626 133.64083862 C-19.51950171 135.3693447 -20.24673467 137.09700166 -20.97608948 138.82376099 C-22.70471312 142.92826114 -24.38866646 147.04056758 -25.97802734 151.20117188 C-26.27928024 151.97531433 -26.58053314 152.74945679 -26.89091492 153.54705811 C-27.44731672 154.98353902 -27.99024083 156.42535514 -28.51594543 157.87335205 C-30.50625067 162.96549224 -32.55469043 165.42728587 -37.08984375 168.30078125 C-40.70507812 168.93188477 -40.70507812 168.93188477 -44.68359375 168.9296875 C-45.74821838 168.93330544 -45.74821838 168.93330544 -46.83435059 168.93699646 C-48.32696144 168.93602198 -49.81961024 168.92272371 -51.31201172 168.89770508 C-53.58426862 168.8633655 -55.8526354 168.87706876 -58.125 168.89648438 C-59.58204764 168.88958525 -61.03908534 168.87991224 -62.49609375 168.8671875 C-63.80900391 168.85631104 -65.12191406 168.84543457 -66.47460938 168.83422852 C-70.67294685 168.21474125 -72.83818042 166.98967991 -76.08984375 164.30078125 C-78.10789822 160.26467231 -78.54033558 158.04536004 -77.41333008 153.6809082 C-73.31217514 142.36932559 -68.46068584 131.38604507 -63.62838745 120.37103271 C-61.01294111 114.40803294 -58.41302973 108.43826671 -55.8125 102.46875 C-55.30421158 101.30273254 -54.79592316 100.13671509 -54.27223206 98.93536377 C-50.61880891 90.54424675 -47.03528564 82.12870409 -43.52734375 73.67578125 C-38.10796566 60.64213014 -32.55922422 47.66512514 -26.98025513 34.69903564 C-25.97644553 32.36522938 -24.97388568 30.03088515 -23.97262573 27.69598389 C-22.56481864 24.41423141 -21.15223003 21.13457893 -19.73828125 17.85546875 C-19.10163795 16.36859558 -19.10163795 16.36859558 -18.45213318 14.85168457 C-13.48791574 3.37617441 -13.48791574 3.37617441 -10.40795898 1.00708008 C-6.96471214 -0.04203136 -3.56619189 -0.00432718 0 0 Z " fill="#3E85A8" transform="translate(127.08984375,59.69921875)"/>
<path d="M0 0 C1.49704877 -0.00406918 2.99409453 -0.009413 4.49113464 -0.01593018 C8.54278919 -0.02956849 12.59421372 -0.02431961 16.64587212 -0.01479292 C20.8933561 -0.00717821 25.14082088 -0.01424695 29.38830566 -0.01895142 C36.52013674 -0.0244037 43.65187451 -0.01723121 50.78369141 -0.00292969 C59.01974608 0.01339583 67.25557794 0.00810695 75.49162722 -0.0084089 C82.57294253 -0.02203881 89.65419092 -0.02393608 96.73551512 -0.0160929 C100.96049875 -0.01142464 105.18537777 -0.01076814 109.41035461 -0.02070236 C113.38312991 -0.0293917 117.35561893 -0.02331443 121.32836342 -0.00601959 C122.78317605 -0.00206522 124.23801292 -0.00317079 125.69281578 -0.00980759 C141.5002091 -0.07525217 141.5002091 -0.07525217 147.1796875 5.140625 C149.47227574 9.8601168 148.78894666 15.44730299 148.77246094 20.60498047 C148.77149023 22.75023355 148.81308881 24.89188577 148.85742188 27.03662109 C148.86263102 28.41161369 148.86531703 29.78661863 148.86523438 31.16162109 C148.87232422 32.40347168 148.87941406 33.64532227 148.88671875 34.92480469 C148.06930835 39.52630625 146.57935171 41.12967832 143.27148438 44.38818359 C139.95626747 45.49325589 137.48359153 45.52234351 133.99076843 45.53535461 C132.67429321 45.54250992 131.35781799 45.54966522 130.00144958 45.55703735 C128.53897118 45.55987759 127.07649253 45.56258932 125.61401367 45.56518555 C124.07652635 45.5714508 122.53904054 45.57809766 121.0015564 45.58509827 C115.94961602 45.60613161 110.89767536 45.61649915 105.84570312 45.62646484 C104.10643816 45.6305125 102.36717335 45.63462943 100.62790871 45.63881493 C92.45762127 45.65786405 84.28734285 45.67209634 76.11703748 45.6804269 C66.68542719 45.69020232 57.25405141 45.71653088 47.82252377 45.75692779 C40.53240658 45.78708146 33.24235665 45.80189501 25.9521783 45.80520791 C21.59798931 45.80755903 17.24405092 45.81652761 12.88992882 45.84166908 C8.79325593 45.86494219 4.6969988 45.86918627 0.60027695 45.8589077 C-0.90173538 45.85841206 -2.40376813 45.86474097 -3.90571785 45.87846375 C-5.95992517 45.8961795 -8.01263977 45.88908043 -10.06684875 45.87593079 C-11.78936592 45.87951332 -11.78936592 45.87951332 -13.5466814 45.88316822 C-18.01084824 45.18869648 -21.38513787 43.21087272 -24.0847168 39.5480957 C-25.48549193 34.84856684 -25.06020727 29.83383901 -25.04418945 24.97094727 C-25.04103087 22.9603852 -25.06450179 20.95129819 -25.08984375 18.94091797 C-25.09048828 17.66667969 -25.09113281 16.39244141 -25.09179688 15.07958984 C-25.09477783 13.9162915 -25.09775879 12.75299316 -25.10083008 11.55444336 C-24.6732859 7.9184955 -24.09028696 6.18719731 -21.72851562 3.38818359 C-14.94170252 -0.67908535 -7.69536156 -0.03510618 0 0 Z " fill="#3F85A9" transform="translate(280.728515625,242.61181640625)"/>
<path d="M0 0 C0.97270369 -0.00913666 0.97270369 -0.00913666 1.96505797 -0.01845789 C4.13611432 -0.03509555 6.30658466 -0.03031126 8.47769165 -0.0255127 C10.03503529 -0.03285267 11.59237349 -0.04143869 13.14970398 -0.05117798 C17.37912204 -0.07341166 21.60834538 -0.0763237 25.83781385 -0.07443047 C29.36911807 -0.07431084 32.90038093 -0.08287196 36.43167365 -0.09120798 C44.76361001 -0.11044915 53.09544619 -0.11332346 61.42739868 -0.10656738 C70.02080214 -0.09992744 78.61377627 -0.12278725 87.20709264 -0.15988111 C94.58642437 -0.19057809 101.96561801 -0.20193811 109.34501231 -0.1980443 C113.75174995 -0.19597659 118.15815362 -0.20145898 122.56483078 -0.22593689 C126.71005193 -0.24820132 130.85457538 -0.24632924 134.99979973 -0.22600937 C136.51954248 -0.2225986 138.03933217 -0.22769145 139.55901146 -0.24199295 C152.47308295 -0.35512136 152.47308295 -0.35512136 156.41143799 2.80786133 C160.74173169 8.11197829 159.78214127 13.96308133 159.81826782 20.51525879 C159.8354563 22.68851157 159.87933988 24.86023264 159.92349243 27.03308105 C159.93362206 28.42043968 159.94213732 29.80781122 159.94888306 31.19519043 C159.97075684 33.08491577 159.97075684 33.08491577 159.99307251 35.01281738 C159.44264754 38.97330378 158.31109003 40.58760731 155.52310181 43.39440918 C152.71722155 44.79734931 150.38874279 44.53335794 147.24874878 44.54830933 C146.59790495 44.55269158 145.94706111 44.55707383 145.27649474 44.56158888 C143.08558224 44.57499242 140.89470998 44.58115921 138.70376587 44.58728027 C137.13686948 44.59518005 135.56997491 44.60344893 134.00308228 44.61206055 C128.84831483 44.63829624 123.69353921 44.65359027 118.53872681 44.66784668 C116.7651036 44.67320583 114.99148045 44.67858334 113.21785736 44.68397903 C105.84040659 44.70561052 98.46295802 44.72434744 91.08548355 44.73560143 C80.50847621 44.75184149 69.9318362 44.78501741 59.35496736 44.84200227 C51.9204998 44.88069258 44.48613053 44.90023306 37.05156493 44.90552199 C32.61010954 44.90917688 28.16904578 44.92121226 23.72769928 44.95362473 C19.54808226 44.98368935 15.36909416 44.99002319 11.18939209 44.97824097 C9.65673224 44.97802009 8.12404336 44.98633697 6.59148407 45.00389481 C-6.43529011 45.14499252 -6.43529011 45.14499252 -10.37295532 41.98294067 C-14.60059622 36.78157245 -13.69832546 31.63139457 -13.71713257 25.12805176 C-13.72681243 23.09987979 -13.75782352 21.07273276 -13.78939819 19.0447998 C-13.79455444 17.76153809 -13.79971069 16.47827637 -13.80502319 15.15612793 C-13.8143689 13.9801001 -13.8237146 12.80407227 -13.83334351 11.59240723 C-13.34957685 7.25209255 -11.92034845 4.76465511 -8.77361107 1.77750397 C-5.7156002 -0.06404921 -3.56153972 0.01143798 0 0 Z " fill="#3D84A8" transform="translate(269.4768981933594,59.6055908203125)"/>
<path d="M0 0 C1.37221553 -0.00243083 2.74442928 -0.00615297 4.11663818 -0.01106262 C7.82728028 -0.02043371 11.53765686 -0.0110792 15.24827814 0.00226951 C19.13767674 0.01362015 23.02706297 0.00947382 26.91647339 0.00752258 C33.44468503 0.00664096 39.97279257 0.01769418 46.50097656 0.03613281 C54.04403238 0.05731617 61.58693595 0.06080576 69.13001549 0.05457085 C76.39530005 0.04887354 83.66053111 0.05452604 90.92580795 0.0657444 C94.01420966 0.07038371 97.10257858 0.07126716 100.19098282 0.06915855 C103.8271914 0.0672729 107.46324532 0.07540077 111.09941864 0.09121895 C113.06766282 0.09747403 115.03593047 0.09395805 117.00418091 0.09014893 C118.17891968 0.09723373 119.35365845 0.10431854 120.56399536 0.11161804 C121.58270281 0.11367091 122.60141026 0.11572378 123.65098763 0.11783886 C128.85829621 0.59414253 132.06791882 2.40620162 135.43310547 6.37231445 C137.23007992 11.76323782 136.70310165 17.54314084 136.74560547 23.18481445 C136.77460938 24.45647461 136.80361328 25.72813477 136.83349609 27.03833008 C136.90488413 37.5213883 136.90488413 37.5213883 134.66357422 41.1340332 C130.8010272 45.01010928 127.90838872 45.62263763 122.48770142 45.64646912 C121.27082138 45.65644424 120.05394135 45.66641937 118.80018616 45.67669678 C117.45468153 45.67759253 116.10917673 45.67825613 114.76367188 45.67871094 C113.34425928 45.68633387 111.92485082 45.6947616 110.50544739 45.70393372 C106.65209051 45.72587164 102.79881299 45.73467657 98.94540071 45.73976016 C96.53720313 45.74340437 94.12902631 45.74964474 91.72083664 45.75676155 C83.31729978 45.78125295 74.91382463 45.79430741 66.51025391 45.79785156 C58.68029407 45.80148731 50.85072611 45.83138597 43.02088606 45.87325615 C36.29548825 45.90795794 29.57022033 45.92339997 22.8447336 45.9240976 C18.82920296 45.92489042 14.81407161 45.93363082 10.79863358 45.96209526 C7.02112448 45.98827468 3.24434575 45.99048256 -0.53321266 45.97443962 C-1.9175113 45.97262502 -3.30185192 45.97931717 -4.68605995 45.99525833 C-16.43849734 46.12232544 -16.43849734 46.12232544 -20.37490845 43.02235413 C-24.77428855 37.70364709 -23.78792516 31.63020524 -23.80712891 25.03051758 C-23.81682776 23.0112172 -23.84786209 20.99293834 -23.87939453 18.97387695 C-23.88455078 17.69512695 -23.88970703 16.41637695 -23.89501953 15.09887695 C-23.90436523 13.92921387 -23.91371094 12.75955078 -23.92333984 11.55444336 C-23.51404841 7.90053613 -22.94134267 6.18040481 -20.56689453 3.37231445 C-13.99081111 -0.46727581 -7.45536209 -0.04465768 0 0 Z " fill="#3F85A9" transform="translate(279.56689453125,150.627685546875)"/>
</svg>
